<svg width="42" height="42" viewBox="0 0 42 42" fill="none" xmlns="http://www.w3.org/2000/svg">
<rect width="42" height="42" rx="21" fill="#014979"/>
<path d="M14.7475 32C14.4702 32 14.2462 31.9253 14.0755 31.776C13.9262 31.6267 13.8195 31.4133 13.7555 31.136L9.6275 10.592C9.60617 10.5067 9.5955 10.432 9.5955 10.368C9.5955 10.304 9.5955 10.2613 9.5955 10.24C9.5955 10.0693 9.6595 9.92 9.7875 9.792C9.9155 9.664 10.0648 9.6 10.2355 9.6H11.8995C12.3475 9.6 12.6035 9.78133 12.6675 10.144L15.9315 26.656L19.3875 15.328C19.4515 15.136 19.5582 14.9653 19.7075 14.816C19.8782 14.6453 20.1128 14.56 20.4115 14.56H21.5955C21.9155 14.56 22.1502 14.6453 22.2995 14.816C22.4488 14.9653 22.5448 15.136 22.5875 15.328L26.0755 26.656L29.3075 10.144C29.3715 9.78133 29.6382 9.6 30.1075 9.6H31.7715C31.9422 9.6 32.0915 9.664 32.2195 9.792C32.3475 9.92 32.4115 10.0693 32.4115 10.24C32.4115 10.2613 32.4008 10.304 32.3795 10.368C32.3795 10.432 32.3795 10.5067 32.3795 10.592L28.2515 31.136C28.1875 31.4133 28.0702 31.6267 27.8995 31.776C27.7502 31.9253 27.5368 32 27.2595 32H26.0115C25.7128 32 25.4782 31.9253 25.3075 31.776C25.1368 31.6267 25.0195 31.4347 24.9555 31.2L20.9875 19.008L17.0515 31.2C16.9662 31.4347 16.8382 31.6267 16.6675 31.776C16.5182 31.9253 16.2942 32 15.9955 32H14.7475Z" fill="white"/>
</svg>
