<?xml version="1.0" standalone="no"?>
<!DOCTYPE svg PUBLIC "-//W3C//DTD SVG 20010904//EN"
 "http://www.w3.org/TR/2001/REC-SVG-20010904/DTD/svg10.dtd">
<svg version="1.0" xmlns="http://www.w3.org/2000/svg"
 width="512.000000pt" height="512.000000pt" viewBox="0 0 512.000000 512.000000"
 preserveAspectRatio="xMidYMid meet">
<metadata>
Created by potrace 1.14, written by Peter Selinger 2001-2017
</metadata>
<g transform="translate(0.000000,512.000000) scale(0.100000,-0.100000)"
fill="#000000" stroke="none">
<path d="M1102 3453 l3 -98 89 -10 c74 -8 90 -13 97 -30 5 -11 119 -447 254
-970 135 -522 248 -958 251 -967 5 -16 20 -18 134 -18 113 0 130 2 138 18 14
25 476 1500 503 1602 12 47 25 91 28 97 4 7 19 -33 34 -90 15 -56 135 -444
266 -862 l238 -760 143 0 143 0 242 976 c133 537 245 981 249 987 3 5 42 13
86 17 l80 7 0 99 0 99 -350 0 -351 0 3 -97 3 -98 112 -15 c62 -9 115 -19 119
-22 9 -10 -334 -1469 -350 -1485 -1 -2 -15 41 -30 95 -14 53 -133 440 -263
860 l-237 763 -134 -3 -134 -3 -261 -848 c-144 -467 -264 -843 -266 -835 -2 7
-82 338 -176 735 l-171 723 30 5 c17 3 67 11 111 18 l80 12 3 98 3 97 -361 0
-361 0 3 -97z"/>
</g>
</svg>
